HIERARCHY
ROOT joint_0
{
	OFFSET 0.000000 0.000000 0.000000
	CHANNELS 6 Xposition Yposition Zposition Zrotation Yrotation Xrotation 
	JOINT joint_1
	{
		OFFSET 6.004005 -1.946999 100.587036
		CHANNELS 3 Zrotation Yrotation Xrotation
		JOINT joint_2
		{
			OFFSET -4.601006 -0.824997 91.925903
			CHANNELS 3 Zrotation Yrotation Xrotation
			JOINT joint_3
			{
				OFFSET -5.420998 -1.130005 91.774048
				CHANNELS 3 Zrotation Yrotation Xrotation
				JOINT joint_4
				{
					OFFSET 4.308998 -3.777992 123.473999
					CHANNELS 3 Zrotation Yrotation Xrotation
					JOINT joint_5
					{
						OFFSET 25.565002 -6.305008 79.437988
						CHANNELS 3 Zrotation Yrotation Xrotation
						End Site
						{
							OFFSET 0.000000 0.000000 0.000000
						}
					}
				}
				JOINT joint_6
				{
					OFFSET -1.750000 -28.655998 68.557983
					CHANNELS 3 Zrotation Yrotation Xrotation
					JOINT joint_7
					{
						OFFSET -17.692001 -116.544006 -17.244019
						CHANNELS 3 Zrotation Yrotation Xrotation
						JOINT joint_8
						{
							OFFSET 27.063004 -23.640991 -266.895020
							CHANNELS 3 Zrotation Yrotation Xrotation
							JOINT joint_9
							{
								OFFSET 40.722000 -15.761017 -232.488953
								CHANNELS 3 Zrotation Yrotation Xrotation
								End Site
								{
									OFFSET 0.000000 0.000000 0.000000
								}
							}
						}
					}
				}
				JOINT joint_10
				{
					OFFSET 6.593002 24.457001 69.892944
					CHANNELS 3 Zrotation Yrotation Xrotation
					JOINT joint_11
					{
						OFFSET 24.311996 114.920002 -19.872925
						CHANNELS 3 Zrotation Yrotation Xrotation
						JOINT joint_12
						{
							OFFSET 21.081001 15.319000 -268.037964
							CHANNELS 3 Zrotation Yrotation Xrotation
							JOINT joint_13
							{
								OFFSET 27.794006 -8.947001 -234.744080
								CHANNELS 3 Zrotation Yrotation Xrotation
								End Site
								{
									OFFSET 0.000000 0.000000 0.000000
								}
							}
						}
					}
				}
			}
		}
	}
	JOINT joint_14
	{
		OFFSET -6.627998 -80.520004 -98.790039
		CHANNELS 3 Zrotation Yrotation Xrotation
		JOINT joint_15
		{
			OFFSET -43.638000 -13.751999 -502.538971
			CHANNELS 3 Zrotation Yrotation Xrotation
			JOINT joint_16
			{
				OFFSET -39.532999 -9.912994 -398.071007
				CHANNELS 3 Zrotation Yrotation Xrotation
				JOINT joint_17
				{
					OFFSET 174.940004 -34.660995 -75.688002
					CHANNELS 3 Zrotation Yrotation Xrotation
					End Site
					{
						OFFSET 0.000000 0.000000 0.000000
					}
				}
			}
		}
	}
	JOINT joint_18
	{
		OFFSET 12.591003 79.842003 -98.765015
		CHANNELS 3 Zrotation Yrotation Xrotation
		JOINT joint_19
		{
			OFFSET -39.080002 -1.297001 -503.101013
			CHANNELS 3 Zrotation Yrotation Xrotation
			JOINT joint_20
			{
				OFFSET -51.570000 -0.514000 -396.815987
				CHANNELS 3 Zrotation Yrotation Xrotation
				JOINT joint_21
				{
					OFFSET 178.987999 -11.521999 -73.244003
					CHANNELS 3 Zrotation Yrotation Xrotation
					End Site
					{
						OFFSET 0.000000 0.000000 0.000000
					}
				}
			}
		}
	}
}
MOTION
Frames: 6
Frame Time: 0.016667
-1263.950928 928.349976 1094.334961 -0.318740 -1.914514 -0.262426 0.763957 2.151935 -0.237222 0.776641 -0.387512 0.093824 0.779790 0.442751 -0.042783 0.045542 -1.354664 -0.486130 0.000000 0.000000 0.000000 5.753755 0.940631 1.079498 -0.075895 1.545856 2.801204 -0.986249 5.013928 -3.160594 0.000000 0.000000 0.000000 3.349011 0.244997 0.329640 -0.141236 0.244905 -2.514517 0.684383 1.582367 6.980397 0.000000 0.000000 0.000000 0.289296 -3.795100 -1.194431 -0.249722 8.368051 0.804031 0.080562 -1.486968 -0.259872 0.000000 0.000000 0.000000 -0.387108 -4.374205 4.379683 -0.093025 6.846856 0.247649 -0.054339 -0.670703 -0.064842 0.000000 0.000000 0.000000 
-1264.158203 928.358154 1094.329956 -0.335663 -1.932384 -0.271125 0.770504 2.134436 -0.239559 0.783400 -0.385871 0.094558 0.786376 0.440248 -0.044099 0.044187 -1.353828 -0.481717 0.000000 0.000000 0.000000 5.747486 0.954880 1.096334 -0.078185 1.562435 2.799302 -0.988803 5.024235 -3.169507 0.000000 0.000000 0.000000 3.346378 0.260706 0.326106 -0.140847 0.261231 -2.518568 0.684815 1.583453 6.986036 0.000000 0.000000 0.000000 0.292397 -3.787291 -1.189127 -0.246353 8.362216 0.808967 0.083416 -1.476131 -0.256499 0.000000 0.000000 0.000000 -0.373738 -4.368122 4.393230 -0.078948 6.845466 0.252986 -0.040445 -0.637531 -0.057104 0.000000 0.000000 0.000000 
-1264.365601 928.378357 1094.322998 -0.352264 -1.952398 -0.279231 0.775857 2.120135 -0.240530 0.788890 -0.384925 0.095305 0.791793 0.438753 -0.044074 0.044074 -1.351497 -0.480773 0.000000 0.000000 0.000000 5.742554 0.968971 1.112124 -0.080522 1.579290 2.794792 -0.990609 5.031237 -3.176182 0.000000 0.000000 0.000000 3.345624 0.276321 0.319145 -0.141018 0.276117 -2.521687 0.685206 1.590910 6.993658 0.000000 0.000000 0.000000 0.295911 -3.776887 -1.185543 -0.242630 8.355823 0.814221 0.086613 -1.464229 -0.252770 0.000000 0.000000 0.000000 -0.361866 -4.358458 4.403945 -0.066781 6.841345 0.261128 -0.028071 -0.602526 -0.049865 0.000000 0.000000 0.000000 
-1264.571167 928.410583 1094.313965 -0.369691 -1.973861 -0.287650 0.781323 2.107025 -0.238223 0.794304 -0.384559 0.095029 0.797225 0.438931 -0.044147 0.044345 -1.349019 -0.480972 0.000000 0.000000 0.000000 5.736506 0.983079 1.128728 -0.082970 1.596568 2.787428 -0.991846 5.036230 -3.180970 0.000000 0.000000 0.000000 3.344152 0.291906 0.310801 -0.141574 0.290729 -2.524762 0.685567 1.602635 7.002529 0.000000 0.000000 0.000000 0.300237 -3.764560 -1.182813 -0.238120 8.348674 0.820005 0.090569 -1.451081 -0.248468 0.000000 0.000000 0.000000 -0.350364 -4.346075 4.413707 -0.055232 6.834463 0.271724 -0.016040 -0.563043 -0.042479 0.000000 0.000000 0.000000 
-1264.791870 928.444519 1094.307007 -0.384901 -1.996010 -0.295670 0.786396 2.096657 -0.235532 0.799323 -0.384632 0.094901 0.802294 0.439201 -0.043657 0.044637 -1.344325 -0.480672 0.000000 0.000000 0.000000 5.728958 0.996635 1.144307 -0.085218 1.612626 2.781787 -0.993260 5.041314 -3.186699 0.000000 0.000000 0.000000 3.340557 0.306770 0.301640 -0.142214 0.304622 -2.527001 0.685922 1.615818 7.011747 0.000000 0.000000 0.000000 0.304109 -3.754234 -1.180606 -0.234308 8.345870 0.825909 0.093976 -1.438059 -0.244427 0.000000 0.000000 0.000000 -0.341057 -4.337089 4.422621 -0.045848 6.835341 0.280476 -0.006273 -0.530509 -0.036452 0.000000 0.000000 0.000000 
-1265.039429 928.470947 1094.302002 -0.396103 -2.018015 -0.303282 0.790436 2.089524 -0.233166 0.803359 -0.384330 0.095012 0.806263 0.438432 -0.044577 0.044364 -1.338121 -0.478238 0.000000 0.000000 0.000000 5.721350 1.008663 1.157906 -0.086860 1.625685 2.783183 -0.995636 5.049451 -3.195999 0.000000 0.000000 0.000000 3.336715 0.319396 0.297203 -0.143062 0.317636 -2.530862 0.686198 1.629297 7.020281 0.000000 0.000000 0.000000 0.306858 -3.749103 -1.177906 -0.231949 8.351202 0.831247 0.096177 -1.426531 -0.241200 0.000000 0.000000 0.000000 -0.335275 -4.336437 4.432056 -0.039514 6.852197 0.282773 -0.000130 -0.513738 -0.032898 0.000000 0.000000 0.000000 
